<svg width="24" height="24" viewBox="0 0 24 24" fill="none" xmlns="http://www.w3.org/2000/svg">
<path d="M8.33795 20.1274H8.77424C9.36427 20.1274 9.78393 20.0568 10.0332 19.9155C10.2825 19.7659 10.4571 19.4958 10.5568 19.1053C10.6316 18.8476 10.6814 17.9127 10.7064 16.3006C10.7396 14.6884 10.7562 12.1787 10.7562 8.77147V4.79501H8.23823C7.01662 4.79501 6.18975 4.96122 5.75762 5.29363C5.33379 5.61773 5.01801 6.30748 4.81025 7.36288L4 7.18837C4.15789 6.46537 4.27839 5.75485 4.3615 5.05679C4.4446 4.35873 4.48615 3.67313 4.48615 3C4.73546 3.15789 5.23823 3.27008 5.99446 3.33657C6.759 3.40305 8.0928 3.43629 9.99584 3.43629H13.0374C15.5637 3.43629 17.1884 3.4072 17.9114 3.34903C18.6427 3.28255 19.1537 3.1662 19.4446 3C19.4446 3.0831 19.4404 3.21607 19.4321 3.39889C19.4238 3.57341 19.4197 3.70637 19.4197 3.79778C19.4197 4.32133 19.4404 4.8615 19.482 5.41828C19.5319 5.97507 19.6025 6.54848 19.6939 7.1385L18.9086 7.28809C18.8089 6.34903 18.5512 5.70914 18.1357 5.36842C17.7285 5.0277 16.8643 4.83657 15.5429 4.79501H13.187C13.1787 5.2687 13.1704 5.93767 13.162 6.80194C13.1454 9.07064 13.1371 10.5956 13.1371 11.3767C13.1371 14.3269 13.1537 16.3255 13.187 17.3726C13.2285 18.4197 13.295 19.072 13.3864 19.3296C13.4945 19.6288 13.6731 19.8366 13.9224 19.9529C14.1717 20.0693 14.554 20.1274 15.0693 20.1274H15.5055V21C14.8158 20.9668 14.1634 20.9418 13.5485 20.9252C12.9418 20.9086 12.3975 20.9003 11.9155 20.9003C11.4917 20.9003 10.9681 20.9086 10.3449 20.9252C9.72992 20.9418 9.06094 20.9668 8.33795 21V20.1274Z" fill="black"/>
</svg>
